<svg width="24" height="24" viewBox="0 0 24 24" fill="none" xmlns="http://www.w3.org/2000/svg">
<g clip-path="url(#clip0_1_425)">
<path d="M2 13L1.10557 12.5528C0.964809 12.8343 0.964809 13.1657 1.10557 13.4472L2 13ZM24 13L24.8944 13.4472C25.0352 13.1657 25.0352 12.8343 24.8944 12.5528L24 13ZM2 13C2.89443 13.4472 2.89429 13.4475 2.89417 13.4477C2.89415 13.4478 2.89404 13.448 2.894 13.4481C2.89391 13.4482 2.89389 13.4483 2.89392 13.4482C2.894 13.4481 2.89431 13.4474 2.89486 13.4464C2.89596 13.4442 2.89803 13.4401 2.90104 13.4343C2.90706 13.4226 2.9169 13.4036 2.93051 13.3779C2.95773 13.3264 3.00002 13.248 3.05712 13.1465C3.1714 12.9434 3.34452 12.6485 3.57441 12.2925C4.03543 11.5787 4.71817 10.6294 5.60454 9.68394C7.39552 7.77356 9.89951 6 13 6V4C9.10049 4 6.10448 6.22644 4.14546 8.31606C3.15683 9.3706 2.40206 10.4213 1.89434 11.2075C1.63985 11.6015 1.44579 11.9316 1.31397 12.166C1.24802 12.2832 1.19754 12.3767 1.16275 12.4424C1.14536 12.4753 1.13187 12.5013 1.12234 12.5198C1.11757 12.5291 1.11378 12.5365 1.11099 12.542C1.10959 12.5448 1.10844 12.5471 1.10754 12.5489C1.10709 12.5498 1.1067 12.5505 1.10637 12.5512C1.10621 12.5515 1.10601 12.5519 1.10592 12.5521C1.10574 12.5525 1.10557 12.5528 2 13ZM13 6C16.1005 6 18.6045 7.77356 20.3955 9.68394C21.2818 10.6294 21.9646 11.5787 22.4256 12.2925C22.6555 12.6485 22.8286 12.9434 22.9429 13.1465C23 13.248 23.0423 13.3264 23.0695 13.3779C23.0831 13.4036 23.0929 13.4226 23.099 13.4343C23.102 13.4401 23.104 13.4442 23.1051 13.4464C23.1057 13.4474 23.106 13.4481 23.1061 13.4482C23.1061 13.4483 23.1061 13.4482 23.106 13.4481C23.106 13.448 23.1059 13.4478 23.1058 13.4477C23.1057 13.4475 23.1056 13.4472 24 13C24.8944 12.5528 24.8943 12.5525 24.8941 12.5521C24.894 12.5519 24.8938 12.5515 24.8936 12.5512C24.8933 12.5505 24.8929 12.5498 24.8925 12.5489C24.8916 12.5471 24.8904 12.5448 24.889 12.542C24.8862 12.5365 24.8824 12.5291 24.8777 12.5198C24.8681 12.5013 24.8546 12.4753 24.8372 12.4424C24.8025 12.3767 24.752 12.2832 24.686 12.166C24.5542 11.9316 24.3601 11.6015 24.1057 11.2075C23.5979 10.4213 22.8432 9.3706 21.8545 8.31606C19.8955 6.22644 16.8995 4 13 4V6ZM24 13C23.1056 12.5528 23.1057 12.5525 23.1058 12.5523C23.1059 12.5522 23.106 12.552 23.106 12.5519C23.1061 12.5518 23.1061 12.5517 23.1061 12.5518C23.106 12.5519 23.1057 12.5526 23.1051 12.5536C23.104 12.5558 23.102 12.5599 23.099 12.5657C23.0929 12.5774 23.0831 12.5964 23.0695 12.6221C23.0423 12.6736 23 12.752 22.9429 12.8535C22.8286 13.0566 22.6555 13.3515 22.4256 13.7075C21.9646 14.4213 21.2818 15.3706 20.3955 16.3161C18.6045 18.2264 16.1005 20 13 20V22C16.8995 22 19.8955 19.7736 21.8545 17.6839C22.8432 16.6294 23.5979 15.5787 24.1057 14.7925C24.3601 14.3985 24.5542 14.0684 24.686 13.834C24.752 13.7168 24.8025 13.6233 24.8372 13.5576C24.8546 13.5247 24.8681 13.4987 24.8777 13.4802C24.8824 13.4709 24.8862 13.4635 24.889 13.458C24.8904 13.4552 24.8916 13.4529 24.8925 13.4511C24.8929 13.4502 24.8933 13.4495 24.8936 13.4488C24.8938 13.4485 24.894 13.4481 24.8941 13.4479C24.8943 13.4475 24.8944 13.4472 24 13ZM13 20C9.89951 20 7.39552 18.2264 5.60454 16.3161C4.71817 15.3706 4.03543 14.4213 3.57441 13.7075C3.34452 13.3515 3.1714 13.0566 3.05712 12.8535C3.00002 12.752 2.95773 12.6736 2.93051 12.6221C2.9169 12.5964 2.90706 12.5774 2.90104 12.5657C2.89803 12.5599 2.89596 12.5558 2.89486 12.5536C2.89431 12.5526 2.894 12.5519 2.89392 12.5518C2.89389 12.5517 2.89391 12.5518 2.894 12.5519C2.89404 12.552 2.89415 12.5522 2.89417 12.5523C2.89429 12.5525 2.89443 12.5528 2 13C1.10557 13.4472 1.10574 13.4475 1.10592 13.4479C1.10601 13.4481 1.10621 13.4485 1.10637 13.4488C1.1067 13.4495 1.10709 13.4502 1.10754 13.4511C1.10844 13.4529 1.10959 13.4552 1.11099 13.458C1.11378 13.4635 1.11757 13.4709 1.12234 13.4802C1.13187 13.4987 1.14536 13.5247 1.16275 13.5576C1.19754 13.6233 1.24802 13.7168 1.31397 13.834C1.44579 14.0684 1.63985 14.3985 1.89434 14.7925C2.40206 15.5787 3.15683 16.6294 4.14546 17.6839C6.10448 19.7736 9.10049 22 13 22V20Z" fill="#6A707C"/>
<path d="M15 13C15 14.1046 14.1046 15 13 15V17C15.2091 17 17 15.2091 17 13H15ZM13 15C11.8954 15 11 14.1046 11 13H9C9 15.2091 10.7909 17 13 17V15ZM11 13C11 11.8954 11.8954 11 13 11V9C10.7909 9 9 10.7909 9 13H11ZM13 11C14.1046 11 15 11.8954 15 13H17C17 10.7909 15.2091 9 13 9V11Z" fill="#6A707C"/>
</g>
<defs>
<clipPath id="clip0_1_425">
<rect width="24" height="24" fill="white"/>
</clipPath>
</defs>
</svg>
