<svg width="24" height="24" viewBox="0 0 24 24" fill="none" xmlns="http://www.w3.org/2000/svg">
<path d="M6 5H20V3H6V5ZM20 5C20.5523 5 21 5.44772 21 6H23C23 4.34315 21.6569 3 20 3V5ZM21 6V20H23V6H21ZM21 20C21 20.5523 20.5523 21 20 21V23C21.6569 23 23 21.6569 23 20H21ZM20 21H6V23H20V21ZM6 21C5.44772 21 5 20.5523 5 20H3C3 21.6569 4.34315 23 6 23V21ZM5 20V6H3V20H5ZM5 6C5 5.44772 5.44772 5 6 5V3C4.34315 3 3 4.34315 3 6H5Z" fill="#5F6AFF"/>
<path d="M14 9C14 8.44771 13.5523 8 13 8C12.4477 8 12 8.44771 12 9H14ZM12 17C12 17.5523 12.4477 18 13 18C13.5523 18 14 17.5523 14 17H12ZM12 9V17H14V9H12Z" fill="#5F6AFF"/>
<path d="M9 12C8.44771 12 8 12.4477 8 13C8 13.5523 8.44771 14 9 14V12ZM17 14C17.5523 14 18 13.5523 18 13C18 12.4477 17.5523 12 17 12V14ZM9 14H17V12H9V14Z" fill="#5F6AFF"/>
</svg>
