<svg width="20" height="20" viewBox="0 0 20 20" fill="none" xmlns="http://www.w3.org/2000/svg">
<path d="M16.6668 18.25C16.6668 18.6642 17.0026 19 17.4168 19C17.831 19 18.1668 18.6642 18.1668 18.25H16.6668ZM14.0835 13.25V12.5V13.25ZM7.41683 13.25V12.5V13.25ZM4.0835 16.5833H3.3335H4.0835ZM3.3335 18.25C3.3335 18.6642 3.66928 19 4.0835 19C4.49771 19 4.8335 18.6642 4.8335 18.25H3.3335ZM18.1668 18.25V16.5833H16.6668V18.25H18.1668ZM18.1668 16.5833C18.1668 15.5004 17.7366 14.4618 16.9709 13.696L15.9102 14.7566C16.3947 15.2411 16.6668 15.8982 16.6668 16.5833H18.1668ZM16.9709 13.696C16.2051 12.9302 15.1665 12.5 14.0835 12.5V14C14.7686 14 15.4257 14.2722 15.9102 14.7566L16.9709 13.696ZM14.0835 12.5H7.41683V14H14.0835V12.5ZM7.41683 12.5C6.33387 12.5 5.29525 12.9302 4.52948 13.696L5.59014 14.7566C6.07461 14.2722 6.73169 14 7.41683 14V12.5ZM4.52948 13.696C3.7637 14.4618 3.3335 15.5004 3.3335 16.5833H4.8335C4.8335 15.8982 5.10567 15.2411 5.59014 14.7566L4.52948 13.696ZM3.3335 16.5833V18.25H4.8335V16.5833H3.3335Z" fill="#222326"/>
<path d="M13.3332 6.58333C13.3332 8.01007 12.1766 9.16667 10.7498 9.16667V10.6667C13.005 10.6667 14.8332 8.8385 14.8332 6.58333H13.3332ZM10.7498 9.16667C9.3231 9.16667 8.1665 8.01007 8.1665 6.58333H6.6665C6.6665 8.8385 8.49467 10.6667 10.7498 10.6667V9.16667ZM8.1665 6.58333C8.1665 5.1566 9.3231 4 10.7498 4V2.5C8.49467 2.5 6.6665 4.32817 6.6665 6.58333H8.1665ZM10.7498 4C12.1766 4 13.3332 5.1566 13.3332 6.58333H14.8332C14.8332 4.32817 13.005 2.5 10.7498 2.5V4Z" fill="#222326"/>
</svg>
