<svg width="15" height="15" viewBox="0 0 15 15" fill="none" xmlns="http://www.w3.org/2000/svg">
<path d="M12.1845 6.5492C12.1845 9.6615 9.6615 12.1845 6.5492 12.1845V13.0984C10.1662 13.0984 13.0984 10.1662 13.0984 6.5492H12.1845ZM6.5492 12.1845C3.43688 12.1845 0.913842 9.6615 0.913842 6.5492H0C0 10.1662 2.93218 13.0984 6.5492 13.0984V12.1845ZM0.913842 6.5492C0.913842 3.43688 3.43688 0.913842 6.5492 0.913842V0C2.93218 0 0 2.93218 0 6.5492H0.913842ZM6.5492 0.913842C9.6615 0.913842 12.1845 3.43688 12.1845 6.5492H13.0984C13.0984 2.93218 10.1662 0 6.5492 0V0.913842Z" fill="#222326"/>
<path d="M14.0308 14.6769L14.3539 15L15.0001 14.3538L14.677 14.0307L14.0308 14.6769ZM11.3643 10.718L11.0412 10.395L10.395 11.0411L10.7181 11.3642L11.3643 10.718ZM14.677 14.0307L11.3643 10.718L10.7181 11.3642L14.0308 14.6769L14.677 14.0307Z" fill="#222326"/>
</svg>
