<svg width="10" height="10" viewBox="0 0 10 10" fill="none" xmlns="http://www.w3.org/2000/svg">
<path d="M9.69008 0.929294L9.99988 0.61953L9.38032 0L9.07055 0.309765L9.69008 0.929294ZM0.309762 9.07066L0 9.38043L0.619522 10L0.929283 9.69019L0.309762 9.07066ZM9.07055 0.309765L0.309762 9.07066L0.929283 9.69019L9.69008 0.929294L9.07055 0.309765Z" fill="#222326"/>
<path d="M9.07055 9.69019L9.38032 10L9.99988 9.38043L9.69008 9.07066L9.07055 9.69019ZM0.929283 0.309765L0.619522 0L0 0.61953L0.309762 0.929294L0.929283 0.309765ZM9.69008 9.07066L0.929283 0.309765L0.309762 0.929294L9.07055 9.69019L9.69008 9.07066Z" fill="#222326"/>
</svg>
