<svg width="24" height="24" viewBox="0 0 24 24" fill="none" xmlns="http://www.w3.org/2000/svg">
<path d="M3.75 12C3.33579 12 3 12.3358 3 12.75C3 13.1642 3.33579 13.5 3.75 13.5V12ZM21.75 13.5C22.1642 13.5 22.5 13.1642 22.5 12.75C22.5 12.3358 22.1642 12 21.75 12V13.5ZM3.75 13.5H21.75V12H3.75V13.5Z" fill="#222326"/>
<path d="M3.75 6C3.33579 6 3 6.33579 3 6.75C3 7.16421 3.33579 7.5 3.75 7.5V6ZM21.75 7.5C22.1642 7.5 22.5 7.16421 22.5 6.75C22.5 6.33579 22.1642 6 21.75 6V7.5ZM3.75 7.5H21.75V6H3.75V7.5Z" fill="#222326"/>
<path d="M3.75 18C3.33579 18 3 18.3358 3 18.75C3 19.1642 3.33579 19.5 3.75 19.5V18ZM21.75 19.5C22.1642 19.5 22.5 19.1642 22.5 18.75C22.5 18.3358 22.1642 18 21.75 18V19.5ZM3.75 19.5H21.75V18H3.75V19.5Z" fill="#222326"/>
</svg>
