<svg width="24" height="24" viewBox="0 0 24 24" fill="none" xmlns="http://www.w3.org/2000/svg">
<path d="M5.31888 14.5035L4.48348 17.6222L1.4301 17.6868C0.517592 15.9943 0 14.0578 0 12C0 10.0101 0.483935 8.13364 1.34174 6.48135H1.3424L4.06076 6.97972L5.25156 9.68178C5.00234 10.4084 4.86649 11.1884 4.86649 12C4.86658 12.8809 5.02615 13.7249 5.31888 14.5035Z" fill="#FBBB00"/>
<path d="M23.7904 9.75816C23.9282 10.4841 24.0001 11.2337 24.0001 11.9999C24.0001 12.859 23.9097 13.697 23.7376 14.5054C23.1534 17.2561 21.6271 19.6581 19.5126 21.3579L19.512 21.3572L16.088 21.1825L15.6034 18.1575C17.0065 17.3346 18.103 16.0469 18.6806 14.5054H12.2639V9.75816H18.7742H23.7904Z" fill="#518EF8"/>
<path d="M19.512 21.3573L19.5126 21.3579C17.4562 23.0109 14.8439 23.9999 12.0002 23.9999C7.43033 23.9999 3.45718 21.4456 1.43036 17.6868L5.31913 14.5035C6.33252 17.2081 8.94153 19.1334 12.0002 19.1334C13.3149 19.1334 14.5465 18.778 15.6034 18.1575L19.512 21.3573Z" fill="#28B446"/>
<path d="M19.6594 2.76261L15.7719 5.94522C14.678 5.26151 13.385 4.86654 11.9998 4.86654C8.8719 4.86654 6.2141 6.88014 5.25148 9.68171L1.34227 6.48128H1.34161C3.33876 2.63076 7.36202 0 11.9998 0C14.9115 0 17.5811 1.03715 19.6594 2.76261Z" fill="#F14336"/>
</svg>
