<svg width="100" height="20" viewBox="0 0 100 20" fill="none" xmlns="http://www.w3.org/2000/svg">
<path d="M96.6666 18.25C96.6666 18.6642 97.0024 19 97.4166 19C97.8308 19 98.1666 18.6642 98.1666 18.25H96.6666ZM94.0833 13.25V12.5V13.25ZM87.4167 13.25V12.5V13.25ZM84.0833 16.5833H83.3333H84.0833ZM83.3333 18.25C83.3333 18.6642 83.6691 19 84.0833 19C84.4976 19 84.8333 18.6642 84.8333 18.25H83.3333ZM98.1666 18.25V16.5833H96.6666V18.25H98.1666ZM98.1666 16.5833C98.1666 15.5004 97.7364 14.4618 96.9707 13.696L95.91 14.7566C96.3945 15.2411 96.6666 15.8982 96.6666 16.5833H98.1666ZM96.9707 13.696C96.2049 12.9302 95.1663 12.5 94.0833 12.5V14C94.7684 14 95.4255 14.2722 95.91 14.7566L96.9707 13.696ZM94.0833 12.5H87.4167V14H94.0833V12.5ZM87.4167 12.5C86.3337 12.5 85.2951 12.9302 84.5293 13.696L85.59 14.7566C86.0745 14.2722 86.7315 14 87.4167 14V12.5ZM84.5293 13.696C83.7636 14.4618 83.3333 15.5004 83.3333 16.5833H84.8333C84.8333 15.8982 85.1055 15.2411 85.59 14.7566L84.5293 13.696ZM83.3333 16.5833V18.25H84.8333V16.5833H83.3333Z" fill="#222326"/>
<path d="M93.3333 6.58333C93.3333 8.01007 92.1767 9.16667 90.75 9.16667V10.6667C93.0052 10.6667 94.8333 8.8385 94.8333 6.58333H93.3333ZM90.75 9.16667C89.3233 9.16667 88.1667 8.01007 88.1667 6.58333H86.6667C86.6667 8.8385 88.4948 10.6667 90.75 10.6667V9.16667ZM88.1667 6.58333C88.1667 5.1566 89.3233 4 90.75 4V2.5C88.4948 2.5 86.6667 4.32817 86.6667 6.58333H88.1667ZM90.75 4C92.1767 4 93.3333 5.1566 93.3333 6.58333H94.8333C94.8333 4.32817 93.0052 2.5 90.75 2.5V4Z" fill="#222326"/>
<g clip-path="url(#clip0_1_44)">
<path d="M48.3333 18.25C48.3333 18.296 48.296 18.3333 48.25 18.3333V19.8333C49.1244 19.8333 49.8333 19.1244 49.8333 18.25H48.3333ZM48.25 18.3333C48.204 18.3333 48.1667 18.296 48.1667 18.25H46.6667C46.6667 19.1244 47.3755 19.8333 48.25 19.8333V18.3333ZM48.1667 18.25C48.1667 18.204 48.204 18.1667 48.25 18.1667V16.6667C47.3755 16.6667 46.6667 17.3755 46.6667 18.25H48.1667ZM48.25 18.1667C48.296 18.1667 48.3333 18.204 48.3333 18.25H49.8333C49.8333 17.3755 49.1244 16.6667 48.25 16.6667V18.1667Z" fill="#222326"/>
<path d="M57.5 18.25C57.5 18.296 57.4627 18.3333 57.4167 18.3333V19.8333C58.2911 19.8333 59 19.1244 59 18.25H57.5ZM57.4167 18.3333C57.3707 18.3333 57.3333 18.296 57.3333 18.25H55.8333C55.8333 19.1244 56.5422 19.8333 57.4167 19.8333V18.3333ZM57.3333 18.25C57.3333 18.204 57.3707 18.1667 57.4167 18.1667V16.6667C56.5422 16.6667 55.8333 17.3755 55.8333 18.25H57.3333ZM57.4167 18.1667C57.4627 18.1667 57.5 18.204 57.5 18.25H59C59 17.3755 58.2911 16.6667 57.4167 16.6667V18.1667Z" fill="#222326"/>
<path d="M41.5833 0.833336C41.1691 0.833336 40.8333 1.16912 40.8333 1.58334C40.8333 1.99755 41.1691 2.33334 41.5833 2.33334V0.833336ZM44.9167 1.58334L45.6521 1.43614C45.5819 1.08562 45.2741 0.833336 44.9167 0.833336V1.58334ZM47.15 12.7416L47.8856 12.5955L47.8854 12.5944L47.15 12.7416ZM48.8167 14.0833V13.3333C48.8119 13.3333 48.8071 13.3333 48.8023 13.3334L48.8167 14.0833ZM56.9166 14.0833L56.931 13.3334C56.9262 13.3333 56.9214 13.3333 56.9166 13.3333V14.0833ZM58.5833 12.7416L59.319 12.8878L59.32 12.8821L58.5833 12.7416ZM59.9166 5.75001L60.6534 5.8905C60.6952 5.67094 60.637 5.44414 60.4945 5.27192C60.352 5.0997 60.1402 5.00001 59.9166 5.00001V5.75001ZM45.75 5.00001C45.3358 5.00001 45 5.33579 45 5.75001C45 6.16422 45.3358 6.50001 45.75 6.50001V5.00001ZM41.5833 2.33334H44.9167V0.833336H41.5833V2.33334ZM44.1813 1.73053L46.4146 12.8888L47.8854 12.5944L45.6521 1.43614L44.1813 1.73053ZM46.4144 12.8877C46.5249 13.4441 46.8275 13.9438 47.2693 14.2994L48.2099 13.131C48.0423 12.9961 47.9276 12.8065 47.8856 12.5955L46.4144 12.8877ZM47.2693 14.2994C47.7111 14.6551 48.264 14.844 48.831 14.8332L48.8023 13.3334C48.5872 13.3376 48.3775 13.2659 48.2099 13.131L47.2693 14.2994ZM48.8167 14.8333H56.9166V13.3333H48.8167V14.8333ZM56.9023 14.8332C57.4693 14.844 58.0222 14.6551 58.464 14.2994L57.5234 13.131C57.3558 13.2659 57.1461 13.3376 56.931 13.3334L56.9023 14.8332ZM58.464 14.2994C58.9058 13.9438 59.2084 13.4441 59.3189 12.8877L57.8477 12.5955C57.8058 12.8065 57.691 12.9961 57.5234 13.131L58.464 14.2994ZM59.32 12.8821L60.6534 5.8905L59.1799 5.60951L57.8466 12.6011L59.32 12.8821ZM59.9166 5.00001H45.75V6.50001H59.9166V5.00001Z" fill="#222326"/>
</g>
<path d="M15.8333 9.91667C15.8333 13.1844 13.1844 15.8333 9.91667 15.8333V17.3333C14.0128 17.3333 17.3333 14.0128 17.3333 9.91667H15.8333ZM9.91667 15.8333C6.64898 15.8333 4 13.1844 4 9.91667H2.5C2.5 14.0128 5.82055 17.3333 9.91667 17.3333V15.8333ZM4 9.91667C4 6.64898 6.64898 4 9.91667 4V2.5C5.82055 2.5 2.5 5.82055 2.5 9.91667H4ZM9.91667 4C13.1844 4 15.8333 6.64898 15.8333 9.91667H17.3333C17.3333 5.82055 14.0128 2.5 9.91667 2.5V4Z" fill="#222326"/>
<path d="M17.7197 18.7803C18.0126 19.0732 18.4874 19.0732 18.7803 18.7803C19.0732 18.4874 19.0732 18.0126 18.7803 17.7197L17.7197 18.7803ZM15.1553 14.0947C14.8624 13.8018 14.3876 13.8018 14.0947 14.0947C13.8018 14.3876 13.8018 14.8624 14.0947 15.1553L15.1553 14.0947ZM18.7803 17.7197L15.1553 14.0947L14.0947 15.1553L17.7197 18.7803L18.7803 17.7197Z" fill="#222326"/>
<defs>
<clipPath id="clip0_1_44">
<rect width="20" height="20" fill="white" transform="translate(40)"/>
</clipPath>
</defs>
</svg>
