<svg width="20" height="20" viewBox="0 0 20 20" fill="none" xmlns="http://www.w3.org/2000/svg">
<g clip-path="url(#clip0_1_1731)">
<path d="M8.33317 18.25C8.33317 18.296 8.29586 18.3333 8.24984 18.3333V19.8333C9.12428 19.8333 9.83317 19.1244 9.83317 18.25H8.33317ZM8.24984 18.3333C8.20381 18.3333 8.1665 18.296 8.1665 18.25H6.6665C6.6665 19.1244 7.37539 19.8333 8.24984 19.8333V18.3333ZM8.1665 18.25C8.1665 18.204 8.20381 18.1667 8.24984 18.1667V16.6667C7.37539 16.6667 6.6665 17.3755 6.6665 18.25H8.1665ZM8.24984 18.1667C8.29586 18.1667 8.33317 18.204 8.33317 18.25H9.83317C9.83317 17.3755 9.12428 16.6667 8.24984 16.6667V18.1667Z" fill="#222326"/>
<path d="M17.5002 18.25C17.5002 18.296 17.4629 18.3333 17.4168 18.3333V19.8333C18.2913 19.8333 19.0002 19.1244 19.0002 18.25H17.5002ZM17.4168 18.3333C17.3708 18.3333 17.3335 18.296 17.3335 18.25H15.8335C15.8335 19.1244 16.5424 19.8333 17.4168 19.8333V18.3333ZM17.3335 18.25C17.3335 18.204 17.3708 18.1667 17.4168 18.1667V16.6667C16.5424 16.6667 15.8335 17.3755 15.8335 18.25H17.3335ZM17.4168 18.1667C17.4629 18.1667 17.5002 18.204 17.5002 18.25H19.0002C19.0002 17.3755 18.2913 16.6667 17.4168 16.6667V18.1667Z" fill="#222326"/>
<path d="M1.5835 0.833336C1.16928 0.833336 0.833496 1.16912 0.833496 1.58334C0.833496 1.99755 1.16928 2.33334 1.5835 2.33334V0.833336ZM4.91683 1.58334L5.65225 1.43614C5.58209 1.08562 5.2743 0.833336 4.91683 0.833336V1.58334ZM7.15017 12.7416L7.8858 12.5955L7.88558 12.5944L7.15017 12.7416ZM8.81683 14.0833V13.3333C8.81204 13.3333 8.80725 13.3333 8.80246 13.3334L8.81683 14.0833ZM16.9168 14.0833L16.9312 13.3334C16.9264 13.3333 16.9216 13.3333 16.9168 13.3333V14.0833ZM18.5835 12.7416L19.3192 12.8878L19.3202 12.8821L18.5835 12.7416ZM19.9168 5.75001L20.6536 5.8905C20.6954 5.67094 20.6372 5.44414 20.4947 5.27192C20.3522 5.0997 20.1404 5.00001 19.9168 5.00001V5.75001ZM5.75017 5.00001C5.33595 5.00001 5.00017 5.33579 5.00017 5.75001C5.00017 6.16422 5.33595 6.50001 5.75017 6.50001V5.00001ZM1.5835 2.33334H4.91683V0.833336H1.5835V2.33334ZM4.18142 1.73053L6.41475 12.8888L7.88558 12.5944L5.65225 1.43614L4.18142 1.73053ZM6.41454 12.8877C6.52503 13.4441 6.82768 13.9438 7.26949 14.2994L8.21009 13.131C8.0425 12.9961 7.92771 12.8065 7.8858 12.5955L6.41454 12.8877ZM7.26949 14.2994C7.7113 14.6551 8.26413 14.844 8.8312 14.8332L8.80246 13.3334C8.58737 13.3376 8.37767 13.2659 8.21009 13.131L7.26949 14.2994ZM8.81683 14.8333H16.9168V13.3333H8.81683V14.8333ZM16.9025 14.8332C17.4695 14.844 18.0224 14.6551 18.4642 14.2994L17.5236 13.131C17.356 13.2659 17.1463 13.3376 16.9312 13.3334L16.9025 14.8332ZM18.4642 14.2994C18.906 13.9438 19.2086 13.4441 19.3191 12.8877L17.8479 12.5955C17.806 12.8065 17.6912 12.9961 17.5236 13.131L18.4642 14.2994ZM19.3202 12.8821L20.6536 5.8905L19.1801 5.60951L17.8468 12.6011L19.3202 12.8821ZM19.9168 5.00001H5.75017V6.50001H19.9168V5.00001Z" fill="#222326"/>
</g>
<defs>
<clipPath id="clip0_1_1731">
<rect width="20" height="20" fill="white"/>
</clipPath>
</defs>
</svg>
