<svg width="24" height="24" viewBox="0 0 24 24" fill="none" xmlns="http://www.w3.org/2000/svg">
<path d="M20 14C20.5523 14 21 13.5523 21 13C21 12.4477 20.5523 12 20 12V14ZM6 12C5.44771 12 5 12.4477 5 13C5 13.5523 5.44771 14 6 14V12ZM20 12H6V14H20V12Z" fill="#222326"/>
<path d="M12.2929 20.7071C12.6834 21.0976 13.3166 21.0976 13.7071 20.7071C14.0976 20.3166 14.0976 19.6834 13.7071 19.2929L12.2929 20.7071ZM6 13L5.29289 12.2929C4.90237 12.6834 4.90237 13.3166 5.29289 13.7071L6 13ZM13.7071 6.70711C14.0976 6.31658 14.0976 5.68342 13.7071 5.29289C13.3166 4.90237 12.6834 4.90237 12.2929 5.29289L13.7071 6.70711ZM13.7071 19.2929L6.70711 12.2929L5.29289 13.7071L12.2929 20.7071L13.7071 19.2929ZM6.70711 13.7071L13.7071 6.70711L12.2929 5.29289L5.29289 12.2929L6.70711 13.7071Z" fill="#222326"/>
</svg>
