<svg width="20" height="20" viewBox="0 0 20 20" fill="none" xmlns="http://www.w3.org/2000/svg">
<path d="M15.8333 9.91667C15.8333 13.1844 13.1844 15.8333 9.91667 15.8333V17.3333C14.0128 17.3333 17.3333 14.0128 17.3333 9.91667H15.8333ZM9.91667 15.8333C6.64898 15.8333 4 13.1844 4 9.91667H2.5C2.5 14.0128 5.82055 17.3333 9.91667 17.3333V15.8333ZM4 9.91667C4 6.64898 6.64898 4 9.91667 4V2.5C5.82055 2.5 2.5 5.82055 2.5 9.91667H4ZM9.91667 4C13.1844 4 15.8333 6.64898 15.8333 9.91667H17.3333C17.3333 5.82055 14.0128 2.5 9.91667 2.5V4Z" fill="#222326"/>
<path d="M17.7197 18.7803C18.0126 19.0732 18.4874 19.0732 18.7803 18.7803C19.0732 18.4874 19.0732 18.0126 18.7803 17.7197L17.7197 18.7803ZM15.1553 14.0947C14.8624 13.8018 14.3876 13.8018 14.0947 14.0947C13.8018 14.3876 13.8018 14.8624 14.0947 15.1553L15.1553 14.0947ZM18.7803 17.7197L15.1553 14.0947L14.0947 15.1553L17.7197 18.7803L18.7803 17.7197Z" fill="#222326"/>
</svg>
