<svg width="72" height="20" viewBox="0 0 72 20" fill="none" xmlns="http://www.w3.org/2000/svg">
<path d="M65.0543 9.99998L65.3695 10.3365C65.5435 10.1507 65.5435 9.8493 65.3695 9.66343L65.0543 9.99998ZM59.1303 17L65.3695 10.3365L64.7392 9.66343L58.5 16.3268L59.1303 17ZM65.3695 9.66343L59.1303 3L58.5 3.67311L64.7392 10.3365L65.3695 9.66343Z" fill="#887568"/>
<path d="M6.94566 9.99998L6.63054 10.3365C6.45649 10.1507 6.45649 9.8493 6.63054 9.66343L6.94566 9.99998ZM12.8697 17L6.63054 10.3365L7.26079 9.66343L13.5 16.3268L12.8697 17ZM6.63054 9.66343L12.8697 3L13.5 3.67311L7.26079 10.3365L6.63054 9.66343Z" fill="#887568"/>
</svg>
