<svg width="14" height="9" viewBox="0 0 14 9" fill="none" xmlns="http://www.w3.org/2000/svg">
<path d="M10.0945 0.796293L9.59653 0.472018L10.0945 0.796293ZM11.3465 0.458594V0V0.458594ZM13.1172 1.61157H13.8215H13.1172ZM12.5986 2.42685L13.0966 2.75112L12.5986 2.42685ZM4.14738 7.93L4.33267 8.37239C4.45092 8.35142 4.55871 8.3107 4.64537 8.25426L4.14738 7.93ZM0.704284 8.54146L0.024832 8.42076C-0.0416659 8.57956 0.0275834 8.74936 0.206292 8.86572C0.384999 8.98208 0.645764 9.02714 0.88959 8.98385L0.704284 8.54146ZM1.64331 6.29942L1.14532 5.97514C1.05865 6.03158 0.996104 6.10176 0.963856 6.17876L1.64331 6.29942ZM10.5925 1.12056C10.6916 1.05609 10.8091 1.00494 10.9385 0.970045L10.3994 0.122673C10.0992 0.203662 9.82635 0.32237 9.59653 0.472018L10.5925 1.12056ZM10.9385 0.970045C11.0678 0.935149 11.2065 0.917188 11.3465 0.917188V0C11.0215 0 10.6997 0.0416844 10.3994 0.122673L10.9385 0.970045ZM11.3465 0.917188C11.4866 0.917188 11.6252 0.935149 11.7546 0.970045L12.2936 0.122673C11.9934 0.0416844 11.6715 0 11.3465 0V0.917188ZM11.7546 0.970045C11.884 1.00494 12.0016 1.05609 12.1006 1.12056L13.0966 0.472018C12.8668 0.32237 12.5939 0.203662 12.2936 0.122673L11.7546 0.970045ZM12.1006 1.12056C12.1996 1.18505 12.2781 1.2616 12.3317 1.34584L13.633 0.99485C13.5087 0.799324 13.3264 0.621666 13.0966 0.472018L12.1006 1.12056ZM12.3317 1.34584C12.3854 1.43009 12.413 1.52038 12.413 1.61157H13.8215C13.8215 1.39994 13.7575 1.19038 13.633 0.99485L12.3317 1.34584ZM12.413 1.61157C12.413 1.70276 12.3854 1.79305 12.3317 1.8773L13.633 2.2283C13.7575 2.03277 13.8215 1.8232 13.8215 1.61157H12.413ZM12.3317 1.8773C12.2781 1.96155 12.1996 2.0381 12.1006 2.10257L13.0966 2.75112C13.3264 2.60147 13.5087 2.42382 13.633 2.2283L12.3317 1.8773ZM12.1006 2.10257L3.64938 7.60569L4.64537 8.25426L13.0966 2.75112L12.1006 2.10257ZM3.96207 7.48755L0.518979 8.09901L0.88959 8.98385L4.33267 8.37239L3.96207 7.48755ZM1.38374 8.6621L2.32276 6.42008L0.963856 6.17876L0.024832 8.42076L1.38374 8.6621ZM2.1413 6.62368L10.5925 1.12056L9.59653 0.472018L1.14532 5.97514L2.1413 6.62368Z" fill="#5F6AFF"/>
</svg>
