<svg width="20" height="20" viewBox="0 0 20 20" fill="none" xmlns="http://www.w3.org/2000/svg">
<g clip-path="url(#clip0_1_898)">
<path d="M3.5 5C2.94771 5 2.5 5.44771 2.5 6C2.5 6.55228 2.94771 7 3.5 7V5ZM18.5 7C19.0523 7 19.5 6.55228 19.5 6C19.5 5.44771 19.0523 5 18.5 5V7ZM3.5 7H5.16667V5H3.5V7ZM5.16667 7H18.5V5H5.16667V7Z" fill="#EB5757"/>
<path d="M16.8334 5.99999H17.8334C17.8334 5.44771 17.3857 4.99999 16.8334 4.99999V5.99999ZM16.3452 18.8452L17.0523 19.5523L16.3452 18.8452ZM5.6549 18.8452L4.9478 19.5523L5.6549 18.8452ZM5.16675 17.6667H4.16675H5.16675ZM5.16675 5.99999V4.99999C4.61446 4.99999 4.16675 5.44771 4.16675 5.99999H5.16675ZM6.66675 5.99999C6.66675 6.55228 7.11447 6.99999 7.66675 6.99999C8.21903 6.99999 8.66675 6.55228 8.66675 5.99999H6.66675ZM9.33342 2.66666V1.66666V2.66666ZM12.6667 2.66666V1.66666V2.66666ZM13.3334 5.99999C13.3334 6.55228 13.7811 6.99999 14.3334 6.99999C14.8857 6.99999 15.3334 6.55228 15.3334 5.99999H13.3334ZM15.8334 5.99999V17.6667H17.8334V5.99999H15.8334ZM15.8334 17.6667C15.8334 17.8435 15.7631 18.0131 15.6381 18.1381L17.0523 19.5523C17.5524 19.0522 17.8334 18.3739 17.8334 17.6667H15.8334ZM15.6381 18.1381C15.5131 18.2631 15.3435 18.3334 15.1667 18.3334V20.3334C15.8739 20.3334 16.5522 20.0524 17.0523 19.5523L15.6381 18.1381ZM15.1667 18.3334H6.83342V20.3334H15.1667V18.3334ZM6.83342 18.3334C6.65661 18.3334 6.48704 18.2631 6.36201 18.1381L4.9478 19.5523C5.44789 20.0524 6.12617 20.3334 6.83342 20.3334V18.3334ZM6.36201 18.1381C6.23699 18.0131 6.16675 17.8435 6.16675 17.6667H4.16675C4.16675 18.3739 4.4477 19.0522 4.9478 19.5523L6.36201 18.1381ZM6.16675 17.6667V5.99999H4.16675V17.6667H6.16675ZM5.16675 6.99999H16.8334V4.99999H5.16675V6.99999ZM8.66675 5.99999V4.33333H6.66675V5.99999H8.66675ZM8.66675 4.33333C8.66675 4.15652 8.73699 3.98695 8.86201 3.86192L7.4478 2.4477C6.9477 2.9478 6.66675 3.62608 6.66675 4.33333H8.66675ZM8.86201 3.86192C8.98704 3.7369 9.15661 3.66666 9.33342 3.66666V1.66666C8.62617 1.66666 7.9479 1.94761 7.4478 2.4477L8.86201 3.86192ZM9.33342 3.66666H12.6667V1.66666H9.33342V3.66666ZM12.6667 3.66666C12.8436 3.66666 13.0131 3.7369 13.1381 3.86192L14.5524 2.4477C14.0523 1.94761 13.374 1.66666 12.6667 1.66666V3.66666ZM13.1381 3.86192C13.2632 3.98695 13.3334 4.15652 13.3334 4.33333H15.3334C15.3334 3.62608 15.0525 2.9478 14.5524 2.4477L13.1381 3.86192ZM13.3334 4.33333V5.99999H15.3334V4.33333H13.3334Z" fill="#EB5757"/>
<path d="M10.3333 10.1667C10.3333 9.61437 9.88554 9.16666 9.33325 9.16666C8.78097 9.16666 8.33325 9.61437 8.33325 10.1667H10.3333ZM8.33325 15.1667C8.33325 15.7189 8.78097 16.1667 9.33325 16.1667C9.88554 16.1667 10.3333 15.7189 10.3333 15.1667H8.33325ZM8.33325 10.1667V15.1667H10.3333V10.1667H8.33325Z" fill="#EB5757"/>
<path d="M13.6667 10.1667C13.6667 9.61437 13.219 9.16666 12.6667 9.16666C12.1145 9.16666 11.6667 9.61437 11.6667 10.1667H13.6667ZM11.6667 15.1667C11.6667 15.7189 12.1145 16.1667 12.6667 16.1667C13.219 16.1667 13.6667 15.7189 13.6667 15.1667H11.6667ZM11.6667 10.1667V15.1667H13.6667V10.1667H11.6667Z" fill="#EB5757"/>
</g>
<defs>
<clipPath id="clip0_1_898">
<rect width="20" height="20" fill="white"/>
</clipPath>
</defs>
</svg>
